<svg xmlns="http://www.w3.org/2000/svg" width="22" height="22" viewBox="0 0 22 22">
    <g fill="#FFF">
        <path d="M10.741 0C4.81 0 .001 4.809 0 10.741c0 5.933 4.809 10.741 10.741 10.742 5.933 0 10.741-4.809 10.742-10.742C21.483 4.81 16.674.001 10.74 0zm0 19.833c-5.02-.01-9.082-4.071-9.091-9.092.01-5.02 4.07-9.082 9.091-9.091 5.02.01 9.083 4.07 9.092 9.091-.01 5.02-4.071 9.083-9.092 9.092z"/>
        <path d="M10.818 13.834c.455 0 .825-.37.825-.825V5.492c0-.455-.37-.825-.825-.825-.456 0-.825.37-.825.825v7.517c0 .455.37.825.825.825z"/>
        <circle cx="10.818" cy="16.126" r="1"/>
    </g>
</svg>